<?xml version="1.0" encoding="UTF-8" standalone="no"?>
<svg
   xmlns:dc="http://purl.org/dc/elements/1.1/"
   xmlns:cc="http://creativecommons.org/ns#"
   xmlns:rdf="http://www.w3.org/1999/02/22-rdf-syntax-ns#"
   xmlns:svg="http://www.w3.org/2000/svg"
   xmlns="http://www.w3.org/2000/svg"
   xmlns:sodipodi="http://sodipodi.sourceforge.net/DTD/sodipodi-0.dtd"
   xmlns:inkscape="http://www.inkscape.org/namespaces/inkscape"
   width="37"
   height="30"
   viewBox="0 0 9.7895837 7.9375003"
   version="1.1"
   id="svg8"
   inkscape:version="1.0.1 (3bc2e813f5, 2020-09-07)"
   sodipodi:docname="lemonicon2.svg">
  <defs
     id="defs2" />
  <sodipodi:namedview
     id="base"
     pagecolor="#2d2f30"
     bordercolor="#666666"
     borderopacity="1.0"
     inkscape:pageopacity="0"
     inkscape:pageshadow="2"
     inkscape:zoom="11.129846"
     inkscape:cx="48.39946"
     inkscape:cy="17.739669"
     inkscape:document-units="px"
     inkscape:current-layer="layer1"
     inkscape:document-rotation="0"
     showgrid="false"
     units="px"
     inkscape:window-width="1334"
     inkscape:window-height="896"
     inkscape:window-x="124"
     inkscape:window-y="62"
     inkscape:window-maximized="0" />
  <metadata
     id="metadata5">
    <rdf:RDF>
      <cc:Work
         rdf:about="">
        <dc:format>image/svg+xml</dc:format>
        <dc:type
           rdf:resource="http://purl.org/dc/dcmitype/StillImage" />
        <dc:title></dc:title>
      </cc:Work>
    </rdf:RDF>
  </metadata>
  <g
     inkscape:label="Layer 1"
     inkscape:groupmode="layer"
     id="layer1">
    <path
       id="path100"
       d="M 5.0391999,7.4462248 C 4.7345786,7.5862253 4.5641011,7.6335975 4.1453738,7.6946016 3.1884499,7.834015 2.805436,7.8076077 2.3309719,7.5695071 2.2274933,7.5175786 1.9594788,7.3609154 1.7353853,7.2213672 1.2526268,6.9207439 1.0781844,6.8411397 0.76947437,6.7805877 0.52907523,6.733436 0.26571069,6.6347869 0.23388612,6.5799724 0.20590738,6.5317812 0.26658289,6.4213818 0.46536591,6.158795 0.67834508,5.8774557 0.7514568,5.7556487 0.75630379,5.6740807 0.75826142,5.641131 0.74121369,5.4088696 0.71841902,5.157943 0.6160346,4.0308842 0.71611431,3.3595767 1.0746685,2.7683153 1.4320619,2.1789685 1.8489349,1.8003956 2.7063235,1.2865686 3.3975373,0.87232885 3.9349539,0.62796815 4.6144082,0.41897158 5.9717402,0.00146296 6.8943077,0.09299754 8.3200379,0.78663437 L 8.6578852,0.95100145 8.8398563,0.92731795 C 9.0598163,0.89869085 9.3013894,0.89338725 9.4182509,0.91462075 9.52577,0.93415695 9.5771738,1.0119244 9.5495879,1.1133202 9.5390352,1.1521118 9.4790566,1.2608359 9.4163032,1.3549293 9.2710418,1.5727358 9.1681211,1.7963097 9.143765,1.9469624 9.1332627,2.0119263 9.1091654,2.2217244 9.0902167,2.4131797 9.0159632,3.1634214 8.8819106,3.8262472 8.7178297,4.2544536 8.4257833,5.0166156 7.8888572,5.6268162 6.8343641,6.3949576 6.6057715,6.5614743 5.298289,7.3271501 5.0391999,7.4462248 Z"
       style="fill:#f9f9f9;fill-opacity:1;stroke-width:0.0219242" />
  </g>
</svg>
